<svg xmlns="http://www.w3.org/2000/svg" height="48" viewBox="0 -960 960 960" width="48"><path d="M580.412-251Q601-251 615.5-265.412t14.5-35Q630-321 615.382-335.5q-14.617-14.5-35.5-14.5Q559-350 545-335.382q-14 14.617-14 35.5Q531-279 545.412-265q14.412 14 35 14ZM378-257l246-245-42-42-245 246 41 41Zm2.412-194Q401-451 415.5-465.412t14.5-35Q430-521 415.382-535.5q-14.617-14.5-35.5-14.5Q359-550 345-535.382q-14 14.617-14 35.5Q331-479 345.412-465q14.412 14 35 14Zm99.581 392Q333.66-59 235.83-159.052 138-259.105 138-408.157q0-104.753 84.5-228.798T480-909q173 148 258 272.108t85 228.716q0 148.847-98.337 249.011Q626.327-59 479.993-59Zm-.249-91Q587-150 659-223.722t72-184.828q0-73.45-64.494-168.95-64.495-95.5-186.5-209.5Q358-673 293.5-577.033 229-481.066 229-407.975q0 110.578 71.744 184.276Q372.488-150 479.744-150ZM480-484Z"/></svg>